<?xml version="1.0" encoding="UTF-8" standalone="no"?>
<!DOCTYPE svg PUBLIC "-//W3C//DTD SVG 1.1//EN" "http://www.w3.org/Graphics/SVG/1.1/DTD/svg11.dtd">
<svg version="1.1" xmlns="http://www.w3.org/2000/svg" xmlns:xlink="http://www.w3.org/1999/xlink" preserveAspectRatio="xMidYMid meet" viewBox="378.21516754850086 24.996472663139514 261.1428571428572 261.14285714285717" width="257.14" height="257.14"><defs><path d="M636.36 154.57C636.36 225.53 578.75 283.14 507.79 283.14C436.83 283.14 379.22 225.53 379.22 154.57C379.22 83.61 436.83 26 507.79 26C578.75 26 636.36 83.61 636.36 154.57Z" id="aceOAjCfH"></path><path d="M630.41 153.38C630.41 191.16 599.73 221.83 561.95 221.83C524.17 221.83 493.5 191.16 493.5 153.38C493.5 115.6 524.17 84.93 561.95 84.93C599.73 84.93 630.41 115.6 630.41 153.38Z" id="c2gb8JwAtS"></path><path d="M572.07 97.43C572.07 134.88 541.67 165.28 504.22 165.28C466.76 165.28 436.36 134.88 436.36 97.43C436.36 59.97 466.76 29.57 504.22 29.57C541.67 29.57 572.07 59.97 572.07 97.43Z" id="b5et0gdFn"></path><path d="M602.43 94.45C602.43 116.79 584.29 134.93 561.95 134.93C539.61 134.93 521.48 116.79 521.48 94.45C521.48 72.11 539.61 53.97 561.95 53.97C584.29 53.97 602.43 72.11 602.43 94.45Z" id="buufoS6U9"></path><path d="M553.02 193.89C553.02 233.97 520.49 266.51 480.41 266.51C440.33 266.51 407.79 233.97 407.79 193.89C407.79 153.81 440.33 121.27 480.41 121.27C520.49 121.27 553.02 153.81 553.02 193.89Z" id="b1YzxI6pR7"></path><path d="M491.72 133.14C491.72 159.75 470.11 181.35 443.5 181.35C416.89 181.35 395.29 159.75 395.29 133.14C395.29 106.53 416.89 84.93 443.5 84.93C470.11 84.93 491.72 106.53 491.72 133.14Z" id="a12MfcMcmz"></path><path d="M581.6 224.81C581.6 245.17 565.06 261.71 544.69 261.71C524.32 261.71 507.79 245.17 507.79 224.81C507.79 204.44 524.32 187.9 544.69 187.9C565.06 187.9 581.6 204.44 581.6 224.81Z" id="c2k4VPYeV9"></path><path d="M488.64 231.32L586.95 87.34L420.67 149.13L488.64 231.32Z" id="d36OZXYt1w"></path><path d="M427.75 218.65L525.49 128.71L415.58 185.58L427.75 218.65Z" id="ckDUw4hba"></path></defs><g><g><use xlink:href="#aceOAjCfH" opacity="1" fill="#23472b" fill-opacity="1"></use></g><g><use xlink:href="#c2gb8JwAtS" opacity="1" fill="#f1f881" fill-opacity="1"></use></g><g><use xlink:href="#b5et0gdFn" opacity="1" fill="#8af669" fill-opacity="1"></use></g><g><use xlink:href="#buufoS6U9" opacity="1" fill="#dd1e49" fill-opacity="1"></use></g><g><use xlink:href="#b1YzxI6pR7" opacity="1" fill="#7bd3d5" fill-opacity="1"></use></g><g><use xlink:href="#a12MfcMcmz" opacity="1" fill="#fbb6ec" fill-opacity="1"></use></g><g><use xlink:href="#c2k4VPYeV9" opacity="1" fill="#e69e13" fill-opacity="1"></use></g><g><use xlink:href="#d36OZXYt1w" opacity="1" fill="#eff1ff" fill-opacity="1"></use><g><use xlink:href="#d36OZXYt1w" opacity="1" fill-opacity="0" stroke="#000000" stroke-width="3" stroke-opacity="1"></use></g></g><g><use xlink:href="#ckDUw4hba" opacity="1" fill="#1d1e17" fill-opacity="1"></use><g><use xlink:href="#ckDUw4hba" opacity="1" fill-opacity="0" stroke="#000000" stroke-width="0" stroke-opacity="1"></use></g></g></g></svg>