<?xml version="1.0" encoding="UTF-8" standalone="no"?>
<!DOCTYPE svg PUBLIC "-//W3C//DTD SVG 1.1//EN" "http://www.w3.org/Graphics/SVG/1.1/DTD/svg11.dtd">
<svg version="1.1" xmlns="http://www.w3.org/2000/svg" xmlns:xlink="http://www.w3.org/1999/xlink" preserveAspectRatio="xMidYMid meet" viewBox="378.21516754850086 24.645713206793687 261.1428571428572 261.14285714285717" width="257.14" height="257.14"><defs><path d="M636.36 154.22C636.36 225.18 578.75 282.79 507.79 282.79C436.83 282.79 379.22 225.18 379.22 154.22C379.22 83.26 436.83 25.65 507.79 25.65C578.75 25.65 636.36 83.26 636.36 154.22Z" id="bFFti07EP"></path><path d="M630.41 153.03C630.41 190.81 599.73 221.48 561.95 221.48C524.17 221.48 493.5 190.81 493.5 153.03C493.5 115.25 524.17 84.57 561.95 84.57C599.73 84.57 630.41 115.25 630.41 153.03Z" id="e1ZOYu3BDo"></path><path d="M572.07 97.07C572.07 134.53 541.67 164.93 504.22 164.93C466.76 164.93 436.36 134.53 436.36 97.07C436.36 59.62 466.76 29.22 504.22 29.22C541.67 29.22 572.07 59.62 572.07 97.07Z" id="bSYJqEvzO"></path><path d="M602.43 94.1C602.43 116.44 584.29 134.57 561.95 134.57C539.61 134.57 521.48 116.44 521.48 94.1C521.48 71.76 539.61 53.62 561.95 53.62C584.29 53.62 602.43 71.76 602.43 94.1Z" id="a1CCaODo63"></path><path d="M553.02 193.54C553.02 233.62 520.49 266.16 480.41 266.16C440.33 266.16 407.79 233.62 407.79 193.54C407.79 153.46 440.33 120.92 480.41 120.92C520.49 120.92 553.02 153.46 553.02 193.54Z" id="a2nA01pxC0"></path><path d="M491.72 132.79C491.72 159.4 470.11 181 443.5 181C416.89 181 395.29 159.4 395.29 132.79C395.29 106.18 416.89 84.57 443.5 84.57C470.11 84.57 491.72 106.18 491.72 132.79Z" id="aE3VxAnwu"></path><path d="M581.6 224.46C581.6 244.82 565.06 261.36 544.69 261.36C524.32 261.36 507.79 244.82 507.79 224.46C507.79 204.09 524.32 187.55 544.69 187.55C565.06 187.55 581.6 204.09 581.6 224.46Z" id="a2JuQFZXqC"></path></defs><g><g><use xlink:href="#bFFti07EP" opacity="1" fill="#23472b" fill-opacity="1"></use></g><g><use xlink:href="#e1ZOYu3BDo" opacity="1" fill="#f1f881" fill-opacity="1"></use></g><g><use xlink:href="#bSYJqEvzO" opacity="1" fill="#8af669" fill-opacity="1"></use></g><g><use xlink:href="#a1CCaODo63" opacity="1" fill="#dd1e49" fill-opacity="1"></use></g><g><use xlink:href="#a2nA01pxC0" opacity="1" fill="#7bd3d5" fill-opacity="1"></use></g><g><use xlink:href="#aE3VxAnwu" opacity="1" fill="#fbb6ec" fill-opacity="1"></use></g><g><use xlink:href="#a2JuQFZXqC" opacity="1" fill="#e69e13" fill-opacity="1"></use></g></g></svg>